<?xml version="1.0" encoding="UTF-8"?>
<!DOCTYPE svg PUBLIC "-//W3C//DTD SVG 1.1//EN" "http://www.w3.org/Graphics/SVG/1.1/DTD/svg11.dtd">
<svg xmlns="http://www.w3.org/2000/svg" version="1.1" width="428px" height="390px" style="shape-rendering:geometricPrecision; text-rendering:geometricPrecision; image-rendering:optimizeQuality; fill-rule:evenodd; clip-rule:evenodd" xmlns:xlink="http://www.w3.org/1999/xlink">
<g><path style="opacity:0.545" fill="#7353c7" d="M 270.5,66.5 C 267.833,65.5 265.167,64.5 262.5,63.5C 261.653,62.0337 260.32,61.2004 258.5,61C 242.822,60.3472 227.155,60.5139 211.5,61.5C 214.305,60.6805 217.305,60.1805 220.5,60C 233.5,59.3333 246.5,59.3333 259.5,60C 263.858,61.1723 267.525,63.3389 270.5,66.5 Z"/></g>
<g><path style="opacity:0.992" fill="#7950e5" d="M 262.5,63.5 C 260.409,63.3184 258.409,63.6518 256.5,64.5C 255.713,63.7579 255.047,62.9246 254.5,62C 237.365,60.8435 220.365,61.8435 203.5,65C 194.792,68.6771 185.792,71.5104 176.5,73.5C 187.266,67.1327 198.933,63.1327 211.5,61.5C 227.155,60.5139 242.822,60.3472 258.5,61C 260.32,61.2004 261.653,62.0337 262.5,63.5 Z"/></g>
<g><path style="opacity:1" fill="#7d4cf8" d="M 262.5,63.5 C 265.167,64.5 267.833,65.5 270.5,66.5C 271.89,67.8993 272.89,69.5659 273.5,71.5C 274.307,77.4638 274.64,83.4638 274.5,89.5C 271.956,90.7079 270.622,92.7079 270.5,95.5C 266.671,97.4922 262.671,99.4922 258.5,101.5C 246.514,102.333 234.514,102.833 222.5,103C 220.292,103.191 218.292,103.691 216.5,104.5C 213.68,104.087 211.68,105.087 210.5,107.5C 210.167,107.5 209.833,107.5 209.5,107.5C 207.473,107.338 205.473,107.505 203.5,108C 200.012,110.85 196.179,111.683 192,110.5C 192,111.833 192,113.167 192,114.5C 187.891,114.471 186.057,116.471 186.5,120.5C 181.711,124.745 177.378,129.411 173.5,134.5C 172.5,134.5 171.5,134.5 170.5,134.5C 168.068,141.421 165.734,148.421 163.5,155.5C 162.182,162.322 162.182,168.989 163.5,175.5C 163.5,175.833 163.5,176.167 163.5,176.5C 162.844,177.622 162.511,178.955 162.5,180.5C 163.42,188.19 164.42,195.857 165.5,203.5C 166.5,203.5 167.5,203.5 168.5,203.5C 168.5,204.5 168.5,205.5 168.5,206.5C 169.5,206.5 170.5,206.5 171.5,206.5C 174.744,210.651 177.744,214.984 180.5,219.5C 182.645,222.498 184.645,225.665 186.5,229C 188.167,229.333 189.833,229.667 191.5,230C 202.273,237.59 214.273,241.423 227.5,241.5C 260.664,242.332 293.997,242.832 327.5,243C 329.65,244.411 331.984,245.245 334.5,245.5C 337.167,246.167 338.833,247.833 339.5,250.5C 339.249,252.17 338.582,253.67 337.5,255C 338.678,255.967 340.011,256.467 341.5,256.5C 342.356,259.279 343.023,262.112 343.5,265C 342.622,268.574 341.622,272.074 340.5,275.5C 339.167,278.833 336.833,281.167 333.5,282.5C 297.741,284.102 262.075,285.102 226.5,285.5C 225.209,285.737 224.209,285.404 223.5,284.5C 216.255,283.46 208.921,282.126 201.5,280.5C 200.584,280.543 199.917,280.876 199.5,281.5C 193.869,279.68 188.535,277.347 183.5,274.5C 182.191,271.549 179.857,270.216 176.5,270.5C 176.675,267.671 175.342,266.004 172.5,265.5C 173.908,264.757 175.241,263.923 176.5,263C 173.215,261.865 170.382,260.032 168,257.5C 166.779,258.272 165.779,259.272 165,260.5C 164.51,259.207 164.343,257.873 164.5,256.5C 162.143,256.663 159.81,256.497 157.5,256C 156.289,254.887 156.289,253.72 157.5,252.5C 154.607,251.774 152.941,249.941 152.5,247C 147.987,246.477 145.32,243.977 144.5,239.5C 143.167,239.5 141.833,239.5 140.5,239.5C 140.5,239.167 140.5,238.833 140.5,238.5C 136.52,229.873 132.02,221.539 127,213.5C 126.435,207.241 124.935,201.241 122.5,195.5C 122.711,193.314 123.044,191.147 123.5,189C 121.645,185.746 120.645,182.246 120.5,178.5C 121.184,171.181 121.684,163.848 122,156.5C 123.526,155.455 124.359,153.955 124.5,152C 125.318,144.465 126.318,136.965 127.5,129.5C 127.5,129.167 127.5,128.833 127.5,128.5C 128.15,128.196 128.817,127.863 129.5,127.5C 130.997,122.839 133.497,118.839 137,115.5C 138.004,112.038 139.17,108.704 140.5,105.5C 145.099,103.866 148.432,100.866 150.5,96.5C 151.5,96.5 152.5,96.5 153.5,96.5C 153.351,95.448 153.517,94.448 154,93.5C 156.689,91.4781 159.022,89.1448 161,86.5C 162.168,87.5089 163.335,88.5089 164.5,89.5C 164.833,89 165.167,88.5 165.5,88C 164.144,86.4329 163.477,84.5996 163.5,82.5C 167.273,78.7729 171.606,75.7729 176.5,73.5C 185.792,71.5104 194.792,68.6771 203.5,65C 220.365,61.8435 237.365,60.8435 254.5,62C 255.047,62.9246 255.713,63.7579 256.5,64.5C 258.409,63.6518 260.409,63.3184 262.5,63.5 Z"/></g>
<g><path style="opacity:0.875" fill="#6f50c7" d="M 273.5,71.5 C 275.677,74.3731 276.677,77.7064 276.5,81.5C 276.618,84.4857 275.952,87.1524 274.5,89.5C 274.64,83.4638 274.307,77.4638 273.5,71.5 Z"/></g>
<g><path style="opacity:1" fill="#7850e0" d="M 163.5,82.5 C 163.477,84.5996 164.144,86.4329 165.5,88C 165.167,88.5 164.833,89 164.5,89.5C 163.335,88.5089 162.168,87.5089 161,86.5C 159.022,89.1448 156.689,91.4781 154,93.5C 153.517,94.448 153.351,95.448 153.5,96.5C 152.5,96.5 151.5,96.5 150.5,96.5C 148.432,100.866 145.099,103.866 140.5,105.5C 146.521,96.1454 154.188,88.4788 163.5,82.5 Z"/></g>
<g><path style="opacity:0.904" fill="#6e4ad4" d="M 274.5,89.5 C 273.486,92.6889 271.82,95.5222 269.5,98C 265.188,100.99 260.521,103.157 255.5,104.5C 242.656,103.303 229.656,103.303 216.5,104.5C 218.292,103.691 220.292,103.191 222.5,103C 234.514,102.833 246.514,102.333 258.5,101.5C 262.671,99.4922 266.671,97.4922 270.5,95.5C 270.622,92.7079 271.956,90.7079 274.5,89.5 Z"/></g>
<g><path style="opacity:0.244" fill="#7055ba" d="M 255.5,104.5 C 240.355,103.805 225.355,104.805 210.5,107.5C 211.68,105.087 213.68,104.087 216.5,104.5C 229.656,103.303 242.656,103.303 255.5,104.5 Z"/></g>
<g><path style="opacity:1" fill="#724fd3" d="M 209.5,107.5 C 201.122,110.524 193.455,114.857 186.5,120.5C 186.057,116.471 187.891,114.471 192,114.5C 192,113.167 192,111.833 192,110.5C 196.179,111.683 200.012,110.85 203.5,108C 205.473,107.505 207.473,107.338 209.5,107.5 Z"/></g>
<g><path style="opacity:0.953" fill="#7654ce" d="M 140.5,105.5 C 139.17,108.704 138.004,112.038 137,115.5C 133.497,118.839 130.997,122.839 129.5,127.5C 128.817,127.863 128.15,128.196 127.5,128.5C 131.077,120.339 135.411,112.672 140.5,105.5 Z"/></g>
<g><path style="opacity:0.98" fill="#7253ca" d="M 173.5,134.5 C 166.245,147.186 162.912,160.852 163.5,175.5C 162.182,168.989 162.182,162.322 163.5,155.5C 165.734,148.421 168.068,141.421 170.5,134.5C 171.5,134.5 172.5,134.5 173.5,134.5 Z"/></g>
<g><path style="opacity:0.063" fill="#7c5dcb" d="M 235.5,150.5 C 267.337,149.338 299.337,149.338 331.5,150.5C 328.913,151.816 325.913,152.483 322.5,152.5C 318.141,152.351 313.808,152.017 309.5,151.5C 285.006,150.502 260.339,150.169 235.5,150.5 Z"/></g>
<g><path style="opacity:0.762" fill="#7652e0" d="M 235.5,150.5 C 260.339,150.169 285.006,150.502 309.5,151.5C 285.164,151.333 260.831,151.5 236.5,152C 231.368,152.29 226.368,153.124 221.5,154.5C 225.465,151.074 230.131,149.74 235.5,150.5 Z"/></g>
<g><path style="opacity:1" fill="#7d4cf8" d="M 331.5,150.5 C 332.167,150.5 332.5,150.833 332.5,151.5C 334.596,153.482 336.596,155.649 338.5,158C 342.067,157.592 345.901,157.092 350,156.5C 353.523,156.707 357.023,157.04 360.5,157.5C 360.833,157.5 361.167,157.5 361.5,157.5C 361.5,158.5 361.5,159.5 361.5,160.5C 363.167,160.5 364.833,160.5 366.5,160.5C 366.5,161.5 366.5,162.5 366.5,163.5C 373.366,166.429 380.366,169.096 387.5,171.5C 397.939,178.36 406.605,187.027 413.5,197.5C 413.216,201.79 414.716,205.123 418,207.5C 420.769,212.416 423.436,217.416 426,222.5C 428.966,232.553 431.8,242.553 434.5,252.5C 434.557,253.609 434.89,254.609 435.5,255.5C 434.672,261.319 434.172,267.319 434,273.5C 431.134,279.771 429.801,286.438 430,293.5C 428.291,298.381 426.457,303.215 424.5,308C 424.528,309.07 424.861,309.903 425.5,310.5C 422.236,317.376 418.236,323.71 413.5,329.5C 411.704,330.793 410.037,332.293 408.5,334C 407.552,334.483 406.552,334.649 405.5,334.5C 405.5,335.833 405.5,337.167 405.5,338.5C 404.5,338.5 403.5,338.5 402.5,338.5C 402.5,339.5 402.5,340.5 402.5,341.5C 399.5,341.167 398.167,342.5 398.5,345.5C 393.991,348.147 389.324,350.647 384.5,353C 384.957,353.414 385.291,353.914 385.5,354.5C 384.37,355.622 383.703,356.956 383.5,358.5C 383.5,359.167 383.167,359.5 382.5,359.5C 382.083,358.876 381.416,358.543 380.5,358.5C 376.682,360.303 372.682,361.636 368.5,362.5C 367.754,363.736 367.421,365.07 367.5,366.5C 365.517,366.157 364.183,366.824 363.5,368.5C 359.784,370.405 355.784,371.739 351.5,372.5C 347.625,372.085 343.958,372.585 340.5,374C 285.834,374.5 231.168,374.667 176.5,374.5C 166.681,365.735 163.681,355.068 167.5,342.5C 171.923,338.203 177.256,335.703 183.5,335C 230.825,333.861 278.159,333.194 325.5,333C 326.416,332.722 327.082,332.222 327.5,331.5C 328.167,331.5 328.833,331.5 329.5,331.5C 336.881,330.714 344.215,329.714 351.5,328.5C 351.5,327.5 351.5,326.5 351.5,325.5C 356.979,322.924 361.979,319.591 366.5,315.5C 366.369,316.239 366.536,316.906 367,317.5C 371.391,313.612 375.224,309.279 378.5,304.5C 379.325,303.614 380.325,303.281 381.5,303.5C 381.833,300.833 382.167,298.167 382.5,295.5C 383.376,295.631 384.043,295.298 384.5,294.5C 385.502,292.49 386.502,290.49 387.5,288.5C 388.695,290.297 390.362,291.297 392.5,291.5C 391.551,288.128 391.551,284.795 392.5,281.5C 390.252,278.38 390.086,275.047 392,271.5C 392.499,262.146 392.166,252.812 391,243.5C 388.545,241.572 388.378,239.738 390.5,238C 386.123,236.348 384.456,233.181 385.5,228.5C 384.5,228.5 383.5,228.5 382.5,228.5C 382.833,226.5 383.167,224.5 383.5,222.5C 380.891,222.17 379.224,220.67 378.5,218C 381,217.167 381.167,216 379,214.5C 377.559,215.26 376.059,215.926 374.5,216.5C 372.91,214.32 371.576,211.987 370.5,209.5C 368.41,210.791 367.076,210.124 366.5,207.5C 363.582,206.13 360.582,205.13 357.5,204.5C 351.87,201.844 346.203,199.511 340.5,197.5C 337.854,195.747 334.854,194.747 331.5,194.5C 295.653,193.794 259.653,193.128 223.5,192.5C 223.467,188.113 221.134,185.946 216.5,186C 217.423,183.959 217.756,181.792 217.5,179.5C 212.814,179.303 210.814,176.803 211.5,172C 211.464,169.37 211.964,166.87 213,164.5C 214.011,163.663 215.178,163.33 216.5,163.5C 217.904,160.359 219.571,157.359 221.5,154.5C 226.368,153.124 231.368,152.29 236.5,152C 260.831,151.5 285.164,151.333 309.5,151.5C 313.808,152.017 318.141,152.351 322.5,152.5C 325.913,152.483 328.913,151.816 331.5,150.5 Z"/></g>
<g><path style="opacity:1" fill="#7c51e6" d="M 332.5,151.5 C 342.415,151.384 351.748,153.384 360.5,157.5C 357.023,157.04 353.523,156.707 350,156.5C 345.901,157.092 342.067,157.592 338.5,158C 336.596,155.649 334.596,153.482 332.5,151.5 Z"/></g>
<g><path style="opacity:1" fill="#7850e0" d="M 127.5,129.5 C 126.318,136.965 125.318,144.465 124.5,152C 124.359,153.955 123.526,155.455 122,156.5C 121.684,163.848 121.184,171.181 120.5,178.5C 120.645,182.246 121.645,185.746 123.5,189C 123.044,191.147 122.711,193.314 122.5,195.5C 124.935,201.241 126.435,207.241 127,213.5C 132.02,221.539 136.52,229.873 140.5,238.5C 129.795,225.757 123.129,211.09 120.5,194.5C 120.187,189.647 119.521,184.98 118.5,180.5C 117.236,162.812 120.236,145.812 127.5,129.5 Z"/></g>
<g><path style="opacity:1" fill="#7953db" d="M 361.5,157.5 C 371.099,160.63 379.766,165.297 387.5,171.5C 380.366,169.096 373.366,166.429 366.5,163.5C 366.5,162.5 366.5,161.5 366.5,160.5C 364.833,160.5 363.167,160.5 361.5,160.5C 361.5,159.5 361.5,158.5 361.5,157.5 Z"/></g>
<g><path style="opacity:0.404" fill="#755bbd" d="M 118.5,180.5 C 119.521,184.98 120.187,189.647 120.5,194.5C 118.789,190.119 118.123,185.453 118.5,180.5 Z"/></g>
<g><path style="opacity:0.838" fill="#724ae2" d="M 221.5,154.5 C 219.571,157.359 217.904,160.359 216.5,163.5C 215.178,163.33 214.011,163.663 213,164.5C 211.964,166.87 211.464,169.37 211.5,172C 210.814,176.803 212.814,179.303 217.5,179.5C 217.756,181.792 217.423,183.959 216.5,186C 221.134,185.946 223.467,188.113 223.5,192.5C 259.653,193.128 295.653,193.794 331.5,194.5C 297.833,194.5 264.167,194.5 230.5,194.5C 215.57,192.328 208.404,183.662 209,168.5C 210.92,161.751 215.086,157.084 221.5,154.5 Z"/></g>
<g><path style="opacity:0.217" fill="#7354c7" d="M 230.5,194.5 C 264.167,194.5 297.833,194.5 331.5,194.5C 334.854,194.747 337.854,195.747 340.5,197.5C 337.161,197.11 333.827,196.61 330.5,196C 296.997,195.832 263.664,195.332 230.5,194.5 Z"/></g>
<g><path style="opacity:1" fill="#7450d6" d="M 163.5,176.5 C 164.333,186.996 166.999,196.996 171.5,206.5C 170.5,206.5 169.5,206.5 168.5,206.5C 168.5,205.5 168.5,204.5 168.5,203.5C 167.5,203.5 166.5,203.5 165.5,203.5C 164.42,195.857 163.42,188.19 162.5,180.5C 162.511,178.955 162.844,177.622 163.5,176.5 Z"/></g>
<g><path style="opacity:1" fill="#7552d7" d="M 413.5,197.5 C 426.176,213.509 433.176,231.843 434.5,252.5C 431.8,242.553 428.966,232.553 426,222.5C 423.436,217.416 420.769,212.416 418,207.5C 414.716,205.123 413.216,201.79 413.5,197.5 Z"/></g>
<g><path style="opacity:1" fill="#774fe1" d="M 357.5,204.5 C 360.582,205.13 363.582,206.13 366.5,207.5C 367.076,210.124 368.41,210.791 370.5,209.5C 371.576,211.987 372.91,214.32 374.5,216.5C 376.059,215.926 377.559,215.26 379,214.5C 381.167,216 381,217.167 378.5,218C 379.224,220.67 380.891,222.17 383.5,222.5C 383.167,224.5 382.833,226.5 382.5,228.5C 383.5,228.5 384.5,228.5 385.5,228.5C 384.456,233.181 386.123,236.348 390.5,238C 388.378,239.738 388.545,241.572 391,243.5C 392.166,252.812 392.499,262.146 392,271.5C 390.086,275.047 390.252,278.38 392.5,281.5C 391.551,284.795 391.551,288.128 392.5,291.5C 390.362,291.297 388.695,290.297 387.5,288.5C 386.502,290.49 385.502,292.49 384.5,294.5C 384.043,295.298 383.376,295.631 382.5,295.5C 397.923,258.458 389.589,228.124 357.5,204.5 Z"/></g>
<g><path style="opacity:1" fill="#7455cc" d="M 180.5,219.5 C 192.914,230.87 207.581,237.704 224.5,240C 257.669,240.168 290.669,240.668 323.5,241.5C 291.5,241.5 259.5,241.5 227.5,241.5C 214.273,241.423 202.273,237.59 191.5,230C 189.833,229.667 188.167,229.333 186.5,229C 184.645,225.665 182.645,222.498 180.5,219.5 Z"/></g>
<g><path style="opacity:0.9" fill="#724ed8" d="M 227.5,241.5 C 259.5,241.5 291.5,241.5 323.5,241.5C 327.733,241.457 331.4,242.79 334.5,245.5C 331.984,245.245 329.65,244.411 327.5,243C 293.997,242.832 260.664,242.332 227.5,241.5 Z"/></g>
<g><path style="opacity:1" fill="#7450d6" d="M 339.5,250.5 C 346.953,258.609 347.286,266.942 340.5,275.5C 341.622,272.074 342.622,268.574 343.5,265C 343.023,262.112 342.356,259.279 341.5,256.5C 340.011,256.467 338.678,255.967 337.5,255C 338.582,253.67 339.249,252.17 339.5,250.5 Z"/></g>
<g><path style="opacity:1" fill="#784ee9" d="M 140.5,239.5 C 141.833,239.5 143.167,239.5 144.5,239.5C 145.32,243.977 147.987,246.477 152.5,247C 152.941,249.941 154.607,251.774 157.5,252.5C 156.289,253.72 156.289,254.887 157.5,256C 159.81,256.497 162.143,256.663 164.5,256.5C 164.343,257.873 164.51,259.207 165,260.5C 165.779,259.272 166.779,258.272 168,257.5C 170.382,260.032 173.215,261.865 176.5,263C 175.241,263.923 173.908,264.757 172.5,265.5C 175.342,266.004 176.675,267.671 176.5,270.5C 179.857,270.216 182.191,271.549 183.5,274.5C 165.961,266.881 151.627,255.214 140.5,239.5 Z"/></g>
<g><path style="opacity:0.655" fill="#7456c7" d="M 199.5,281.5 C 199.917,280.876 200.584,280.543 201.5,280.5C 208.921,282.126 216.255,283.46 223.5,284.5C 215.372,284.434 207.372,283.434 199.5,281.5 Z"/></g>
<g><path style="opacity:1" fill="#724ed4" d="M 435.5,255.5 C 436.779,274.707 433.446,293.041 425.5,310.5C 424.861,309.903 424.528,309.07 424.5,308C 426.457,303.215 428.291,298.381 430,293.5C 429.801,286.438 431.134,279.771 434,273.5C 434.172,267.319 434.672,261.319 435.5,255.5 Z"/></g>
<g><path style="opacity:0.788" fill="#7655ce" d="M 333.5,282.5 C 330.679,284.82 327.346,285.987 323.5,286C 291.387,285.974 259.054,285.808 226.5,285.5C 262.075,285.102 297.741,284.102 333.5,282.5 Z"/></g>
<g><path style="opacity:0.827" fill="#7151ca" d="M 382.5,295.5 C 382.167,298.167 381.833,300.833 381.5,303.5C 380.325,303.281 379.325,303.614 378.5,304.5C 375.224,309.279 371.391,313.612 367,317.5C 366.536,316.906 366.369,316.239 366.5,315.5C 372.973,309.699 378.307,303.032 382.5,295.5 Z"/></g>
<g><path style="opacity:0.745" fill="#7657c9" d="M 351.5,325.5 C 351.5,326.5 351.5,327.5 351.5,328.5C 344.215,329.714 336.881,330.714 329.5,331.5C 336.892,330.145 344.225,328.145 351.5,325.5 Z"/></g>
<g><path style="opacity:0.866" fill="#7752da" d="M 327.5,331.5 C 327.082,332.222 326.416,332.722 325.5,333C 278.159,333.194 230.825,333.861 183.5,335C 177.256,335.703 171.923,338.203 167.5,342.5C 169.021,338.885 171.687,336.385 175.5,335C 182.34,333.01 189.34,332.01 196.5,332C 240.165,331.5 283.832,331.333 327.5,331.5 Z"/></g>
<g><path style="opacity:1" fill="#724fd7" d="M 413.5,329.5 C 405.477,341.189 395.477,350.856 383.5,358.5C 383.703,356.956 384.37,355.622 385.5,354.5C 385.291,353.914 384.957,353.414 384.5,353C 389.324,350.647 393.991,348.147 398.5,345.5C 398.167,342.5 399.5,341.167 402.5,341.5C 402.5,340.5 402.5,339.5 402.5,338.5C 403.5,338.5 404.5,338.5 405.5,338.5C 405.5,337.167 405.5,335.833 405.5,334.5C 406.552,334.649 407.552,334.483 408.5,334C 410.037,332.293 411.704,330.793 413.5,329.5 Z"/></g>
<g><path style="opacity:0.851" fill="#6f4fcd" d="M 167.5,342.5 C 163.681,355.068 166.681,365.735 176.5,374.5C 167.006,368.846 162.84,360.512 164,349.5C 164.522,346.719 165.689,344.385 167.5,342.5 Z"/></g>
<g><path style="opacity:0.776" fill="#734eda" d="M 382.5,359.5 C 376.565,363.3 370.232,366.3 363.5,368.5C 364.183,366.824 365.517,366.157 367.5,366.5C 367.421,365.07 367.754,363.736 368.5,362.5C 372.682,361.636 376.682,360.303 380.5,358.5C 381.416,358.543 382.083,358.876 382.5,359.5 Z"/></g>
<g><path style="opacity:0.97" fill="#7855d4" d="M 351.5,372.5 C 345.764,374.347 339.764,375.513 333.5,376C 282.167,376.667 230.833,376.667 179.5,376C 178.263,375.768 177.263,375.268 176.5,374.5C 231.168,374.667 285.834,374.5 340.5,374C 343.958,372.585 347.625,372.085 351.5,372.5 Z"/></g>
</svg>
