<?xml version="1.0" ?><svg width="64px" height="64px" data-name="Layer 1" id="Layer_1" viewBox="0 0 512 512" xmlns="http://www.w3.org/2000/svg"><title/><path d="M292.08,271.8a5.24,5.24,0,0,0-5.25,5.24v68.74a5.25,5.25,0,0,0,10.49,0V277A5.24,5.24,0,0,0,292.08,271.8Z"/><path d="M220.07,271.8a5.23,5.23,0,0,0-5.24,5.24v68.74a5.24,5.24,0,0,0,10.48,0V277A5.23,5.23,0,0,0,220.07,271.8Z"/><path d="M385.85,249.9h-4.64a36.31,36.31,0,1,0-50.94,0h-9.38a38.43,38.43,0,0,0-27.17-11.24h-9.44a44.08,44.08,0,1,0-56.4,0h-9.44a38.39,38.39,0,0,0-27.16,11.24h-9.55a36.32,36.32,0,1,0-50.94,0h-4.64a31.9,31.9,0,0,0-31.87,31.87v54.88a5.25,5.25,0,0,0,10.49,0V281.77a21.4,21.4,0,0,1,21.38-21.38h57.79a38,38,0,0,0-4,16.79v68.6a5.24,5.24,0,0,0,10.48,0v-68.6a28.07,28.07,0,0,1,28-28h75.28a28.07,28.07,0,0,1,28,28v4.12c0,.12-.07.23-.07.35v55c0,.12.06.23.07.35v8.78a5.25,5.25,0,0,0,10.49,0v-68.6a38,38,0,0,0-4-16.79h57.62a21.4,21.4,0,0,1,21.38,21.38v54.88a5.25,5.25,0,0,0,10.49,0V281.77A31.9,31.9,0,0,0,385.85,249.9ZM130.43,224.07a25.83,25.83,0,1,1,25.83,25.83A25.86,25.86,0,0,1,130.43,224.07Zm92-19a33.6,33.6,0,1,1,33.6,33.6A33.64,33.64,0,0,1,222.48,205.06Zm107.43,19a25.83,25.83,0,1,1,25.84,25.83A25.86,25.86,0,0,1,329.91,224.07Z"/><path d="M384.53,276.41a5.24,5.24,0,0,0-5.24,5.24v55a5.24,5.24,0,0,0,10.48,0v-55A5.24,5.24,0,0,0,384.53,276.41Z"/><path d="M127.45,276.41a5.24,5.24,0,0,0-5.24,5.24v55a5.24,5.24,0,1,0,10.48,0v-55A5.24,5.24,0,0,0,127.45,276.41Z"/></svg>